<svg width="668" height="158" viewBox="0 0 668 158" fill="none" xmlns="http://www.w3.org/2000/svg">
<path fill-rule="evenodd" clip-rule="evenodd" d="M48.9221 77.8348L73.7686 36.262L98.6112 77.8431L73.7686 92.9583L48.9221 77.839V77.8348Z" fill="white"/>
<path fill-rule="evenodd" clip-rule="evenodd" d="M48.9221 84.9778L73.7686 100.097L98.6112 84.9778L73.7686 120.888L48.9221 84.9778Z" fill="white"/>
<path fill-rule="evenodd" clip-rule="evenodd" d="M85.0555 19.4258C81.2018 21.3453 77.4415 23.4886 73.8058 25.8433C70.1435 23.4606 66.3534 21.3081 62.455 19.3968C66.0935 16.7788 69.8533 14.3575 73.7202 12.1418C77.5155 14.3142 81.2952 16.7435 85.0555 19.4258Z" fill="#5F9A34"/>
<path fill-rule="evenodd" clip-rule="evenodd" d="M138.108 10.0245C124.472 -4.49364 99.6175 -2.76074 73.724 12.1098C77.6121 14.3401 81.3951 16.7724 85.0592 19.3979C95.0866 14.4604 104.639 11.8113 112.724 11.8113C119.956 11.8113 126.025 13.9256 130.233 18.4029C139.159 27.9131 138.096 46.3116 129.31 66.526C131.773 70.4301 134.057 74.4589 136.153 78.5982C150.116 51.0211 151.743 24.551 138.108 10.0287V10.0245Z" fill="#FFC750"/>
<path fill-rule="evenodd" clip-rule="evenodd" d="M85.0679 19.3694C81.2143 21.2888 77.454 23.4321 73.8183 25.7869C93.926 39.0351 110.857 57.0935 123.266 78.5282C125.484 74.6355 127.504 70.618 129.315 66.4933C123.437 57.2261 116.733 48.585 109.295 40.6906C101.888 32.7603 93.7728 25.6181 85.064 19.3652L85.0679 19.3694Z" fill="#FFC750"/>
<path fill-rule="evenodd" clip-rule="evenodd" d="M136.154 78.5817C134.063 82.7063 131.783 86.7186 129.322 90.6042C127.512 86.4681 125.49 82.4407 123.265 78.5403C125.483 74.6488 127.502 70.6327 129.314 66.5095C131.776 70.4136 134.058 74.4424 136.154 78.5817Z" fill="#FF512F"/>
<path fill-rule="evenodd" clip-rule="evenodd" d="M129.319 90.6406C127.508 86.5044 125.484 82.477 123.259 78.5767C117.109 89.2898 109.774 99.1787 101.413 108.032C93.1174 116.942 83.8478 124.76 73.8031 131.318C77.4388 133.681 81.199 135.82 85.0566 137.731C93.7654 131.479 101.881 124.336 109.288 116.406C116.73 108.526 123.438 99.8972 129.319 90.6406Z" fill="#FF6895"/>
<path fill-rule="evenodd" clip-rule="evenodd" d="M144.133 98.4884C142.068 91.6065 139.396 84.948 136.154 78.6016C134.064 82.7259 131.786 86.7382 129.326 90.624C138.104 110.83 139.162 129.208 130.237 138.706C121.311 148.212 104.043 147.072 85.0631 137.715C81.4018 140.347 77.6172 142.78 73.724 145.003C87.5116 152.921 100.999 157.117 112.662 157.117C122.899 157.117 131.735 153.883 138.111 147.092C148.088 136.467 150.221 119.209 144.133 98.4884Z" fill="#FF6895"/>
<path fill-rule="evenodd" clip-rule="evenodd" d="M85.0555 137.762C81.3942 140.394 77.6096 142.827 73.7163 145.05C69.8527 142.831 66.0943 140.409 62.455 137.795C66.3521 135.884 70.1409 133.731 73.8019 131.349C77.4376 133.712 81.1979 135.851 85.0555 137.762Z" fill="#552990"/>
<path fill-rule="evenodd" clip-rule="evenodd" d="M51.7234 142.176C36.4216 147.283 24.1871 146.044 17.2933 138.697C10.3956 131.351 9.23174 118.325 14.0235 102.029C15.1835 98.1277 16.5732 94.3096 18.1886 90.5992C15.7359 86.7197 13.4612 82.7158 11.3727 78.6016C8.13431 84.9455 5.46639 91.6013 3.40452 98.4801C-2.69129 119.2 -0.55036 136.455 9.41859 147.084C15.6701 153.738 24.3662 157.117 34.7711 157.117C41.662 157.006 48.4972 155.783 55.0438 153.489C61.5093 151.289 67.7652 148.444 73.7282 144.991C69.8634 142.771 66.1037 140.35 62.463 137.736C58.9753 139.46 55.3902 140.944 51.7195 142.176H51.7234Z" fill="#5666F6"/>
<path fill-rule="evenodd" clip-rule="evenodd" d="M62.4567 137.735C66.3537 135.825 70.1425 133.674 73.8036 131.293C63.7267 124.742 54.4266 116.924 46.1039 108.006C37.7306 99.1412 30.3896 89.235 24.2392 78.5015C22.003 82.4068 19.9794 86.4459 18.1784 90.5986C24.0688 99.8622 30.7863 108.498 38.2369 116.385C45.6385 124.324 53.7503 131.475 62.4567 137.735Z" fill="#5666F6"/>
<path fill-rule="evenodd" clip-rule="evenodd" d="M24.2376 78.4947C22.0017 82.3988 19.9781 86.4364 18.1768 90.5876C15.7256 86.7094 13.4522 82.7068 11.3648 78.5942C13.4591 74.4476 15.7456 70.4144 18.2158 66.5095C20.0063 70.622 22.0188 74.6226 24.2376 78.4905V78.4947Z" fill="#204FA0"/>
<path fill-rule="evenodd" clip-rule="evenodd" d="M17.2984 18.4102C24.1961 11.0641 36.4266 9.82867 51.7323 14.9403C55.3952 16.1757 58.9842 17.6557 62.4759 19.3762C66.113 16.7569 69.8715 14.3342 73.7372 12.1171C67.776 8.65981 61.5197 5.81412 55.0527 3.61845C35.6091 -2.86125 19.4043 -0.589417 9.42364 10.0401C3.04756 16.8266 0.0152283 26.2331 0.0152283 37.1362C0.0152283 49.5608 3.95065 63.9339 11.3816 78.6138C13.476 74.4672 15.7625 70.434 18.2326 66.5291C9.4431 46.3189 8.37264 27.9204 17.2984 18.4102Z" fill="#5FC5A6"/>
<path fill-rule="evenodd" clip-rule="evenodd" d="M62.4705 19.3652C45.0617 31.9731 30.051 47.9766 18.2311 66.5306C20.0217 70.6431 22.0342 74.6437 24.253 78.5116C36.6957 57.0741 53.6681 39.0281 73.8174 25.8118C70.1563 23.4292 66.3676 21.2767 62.4705 19.3652Z" fill="#5FC5A6"/>
<path d="M650.596 110.601V117.167C649.521 117.841 648.294 118.191 647.046 118.179C644.577 118.241 642.16 117.414 640.186 115.833C638.212 114.252 636.796 112.008 636.167 109.465C632.487 113.765 627.561 116.63 622.174 117.601C616.787 118.571 611.25 117.593 606.447 114.821C601.638 112.04 597.837 107.63 595.647 102.29C593.456 96.9498 593.001 90.9838 594.352 85.3368C595.694 79.6928 598.77 74.6886 603.089 71.1198C607.408 67.551 612.724 65.6224 618.191 65.6406C621.395 65.6327 624.57 66.2979 627.533 67.5983C630.496 68.8987 633.189 70.8087 635.458 73.2189V66.6522H642.792V104.034C642.792 108.706 645.038 110.601 647.638 110.601H650.596ZM635.458 91.9076C635.463 87.0244 633.647 82.3389 630.409 78.8816C627.171 75.4243 622.776 73.4784 618.191 73.4718C613.606 73.4795 609.212 75.4259 605.975 78.8831C602.737 82.3402 600.922 87.0251 600.927 91.9076C600.923 94.3258 601.367 96.7209 602.233 98.9564C603.098 101.192 604.369 103.224 605.972 104.936C607.575 106.648 609.48 108.008 611.576 108.936C613.672 109.865 615.92 110.344 618.191 110.348C622.775 110.336 627.167 108.387 630.405 104.93C633.642 101.473 635.459 96.79 635.458 91.9076ZM659.841 41.0112H667.545V118.179H659.841V41.0112ZM582.807 91.5677C582.811 102.301 576.843 111.981 567.672 116.123C563.186 118.145 558.234 118.691 553.454 117.69C548.674 116.689 544.285 114.186 540.852 110.505V117.155H533.503V39.3695H540.852V72.6344C544.285 68.9531 548.674 66.4506 553.454 65.4495C558.234 64.4483 563.186 64.9943 567.672 67.017C576.843 71.1544 582.811 80.8387 582.807 91.5677ZM575.458 91.5677C575.458 81.2533 567.711 72.8914 558.155 72.8914C548.599 72.8914 540.852 81.2533 540.852 91.5677C540.852 101.886 548.599 110.248 558.155 110.248C560.435 110.253 562.693 109.773 564.797 108.836C566.9 107.899 568.807 106.524 570.405 104.792C573.662 101.267 575.478 96.5133 575.458 91.5677ZM470.338 91.9118C470.338 77.4019 481.373 65.6406 494.986 65.6406C498.224 65.6417 501.431 66.3221 504.422 67.643C507.414 68.9638 510.131 70.8992 512.421 73.3387C514.71 75.7782 516.525 78.674 517.764 81.8608C519.002 85.0476 519.639 88.4629 519.638 91.9118C519.638 97.1048 518.192 102.181 515.484 106.5C512.775 110.818 508.926 114.184 504.421 116.173C499.917 118.161 494.96 118.683 490.177 117.672C485.395 116.661 481.001 114.163 477.551 110.493C475.261 108.053 473.445 105.155 472.207 101.967C470.97 98.7788 470.334 95.3619 470.338 91.9118ZM512.288 91.9118C512.29 89.491 511.843 87.0936 510.974 84.8567C510.105 82.6198 508.83 80.5871 507.224 78.8747C505.617 77.1624 503.709 75.8039 501.609 74.8768C499.51 73.9498 497.259 73.4724 494.986 73.4718C492.713 73.4724 490.462 73.9498 488.362 74.8768C486.263 75.8039 484.355 77.1624 482.748 78.8747C481.141 80.5871 479.867 82.6198 478.998 84.8567C478.129 87.0936 477.682 89.491 477.683 91.9118C477.682 94.3326 478.129 96.73 478.998 98.9669C479.867 101.204 481.141 103.236 482.748 104.949C484.355 106.661 486.263 108.02 488.362 108.947C490.462 109.874 492.713 110.351 494.986 110.352C499.575 110.345 503.974 108.4 507.218 104.943C510.462 101.486 512.285 96.7992 512.288 91.9118ZM433.358 76.2204V78.5088C433.483 98.3169 420.073 115.148 402.034 117.818C383.996 120.488 366.943 108.167 362.202 89.0388C357.464 69.9107 366.511 49.9244 383.334 42.3585C400.158 34.7968 419.528 42.0061 428.574 59.1941L422.151 63.1325C415.316 49.9907 400.789 44.1038 387.721 49.1782C374.65 54.2483 366.826 68.8162 369.177 83.6992C371.524 98.5822 383.369 109.473 397.243 109.506C411.12 109.543 423.008 98.7149 425.421 83.8443H397.289V76.2204H433.358ZM448.765 41.0112H456.469V118.179H448.765V41.0112ZM348.624 41.0112V118.179H333.097V87.0572H304.182V118.183H288.534V41.007H304.182V72.0043H333.097V41.007H348.624V41.0112ZM282.372 56.06H264.684V118.179H249.34V56.06H231.531V41.0112H282.372V56.06ZM199.545 55.9315V72.1369H222.967V87.0572H199.545V103.263H226.91V118.179H183.769V41.0112H226.91V55.9315H199.545Z" fill="white"/>
</svg>
